<svg width="24" height="25" viewBox="0 0 24 25" fill="none" xmlns="http://www.w3.org/2000/svg">
<path d="M12 24.7612C18.6274 24.7612 24 19.3886 24 12.7612C24 6.13381 18.6274 0.76123 12 0.76123C5.37258 0.76123 0 6.13381 0 12.7612C0 19.3886 5.37258 24.7612 12 24.7612Z" fill="#E9EEFB"/>
<path fill-rule="evenodd" clip-rule="evenodd" d="M12.1881 8.30408C10.9267 8.30408 10.7685 8.30978 10.2729 8.33288C9.77845 8.35628 9.44081 8.43758 9.14555 8.55608C8.83984 8.67878 8.58087 8.84288 8.32278 9.10988C8.06439 9.37658 7.90558 9.64418 7.78684 9.96008C7.67187 10.2652 7.59348 10.6141 7.57084 11.125C7.54819 11.6371 7.54297 11.8006 7.54297 13.1041C7.54297 14.4079 7.54819 14.5714 7.57084 15.0832C7.59348 15.5941 7.67187 15.943 7.78684 16.2484C7.90558 16.564 8.06439 16.8316 8.32278 17.0986C8.58087 17.3653 8.83984 17.5294 9.14555 17.6521C9.44081 17.7709 9.77845 17.8519 10.2729 17.8753C10.7685 17.8987 10.9267 17.9041 12.1881 17.9041C13.4496 17.9041 13.6078 17.8987 14.1034 17.8753C14.5978 17.8519 14.9355 17.7709 15.2307 17.6521C15.5364 17.5294 15.7954 17.3653 16.0535 17.0986C16.3119 16.8316 16.4707 16.564 16.5894 16.2484C16.7044 15.943 16.7828 15.5941 16.8054 15.0832C16.8281 14.5714 16.8333 14.4079 16.8333 13.1041C16.8333 11.8006 16.8281 11.6371 16.8054 11.125C16.7828 10.6141 16.7044 10.2652 16.5894 9.96008C16.4707 9.64418 16.3119 9.37658 16.0535 9.10988C15.7954 8.84288 15.5364 8.67878 15.2307 8.55608C14.9355 8.43758 14.5978 8.35628 14.1034 8.33288C13.6078 8.30978 13.4496 8.30408 12.1881 8.30408ZM12.1881 9.16898C13.4284 9.16898 13.5753 9.17378 14.0651 9.19688C14.518 9.21818 14.7642 9.29648 14.9279 9.36218C15.1445 9.44918 15.2992 9.55328 15.4618 9.72128C15.6244 9.88928 15.7251 10.0492 15.8093 10.273C15.8729 10.4422 15.9487 10.6966 15.9693 11.1646C15.9916 11.6707 15.9963 11.8225 15.9963 13.1041C15.9963 14.3857 15.9916 14.5375 15.9693 15.0436C15.9487 15.5116 15.8729 15.766 15.8093 15.9352C15.7251 16.159 15.6244 16.3189 15.4618 16.4869C15.2992 16.6549 15.1445 16.759 14.9279 16.846C14.7642 16.9117 14.518 16.99 14.0651 17.0113C13.5753 17.0344 13.4284 17.0392 12.1881 17.0392C10.9479 17.0392 10.801 17.0344 10.3112 17.0113C9.85829 16.99 9.6121 16.9117 9.44836 16.846C9.23178 16.759 9.07703 16.6549 8.91445 16.4869C8.75187 16.3189 8.65113 16.159 8.56694 15.9352C8.50336 15.766 8.42758 15.5116 8.40697 15.0436C8.38461 14.5375 8.37997 14.3857 8.37997 13.1041C8.37997 11.8225 8.38461 11.6707 8.40697 11.1646C8.42758 10.6966 8.50336 10.4422 8.56694 10.273C8.65113 10.0492 8.75187 9.88928 8.91445 9.72128C9.07703 9.55328 9.23178 9.44918 9.44836 9.36218C9.6121 9.29648 9.85829 9.21818 10.3112 9.19688C10.801 9.17378 10.9479 9.16898 12.1881 9.16898Z" fill="#0066FF"/>
<path fill-rule="evenodd" clip-rule="evenodd" d="M12.188 14.704C11.333 14.704 10.6397 13.9876 10.6397 13.1041C10.6397 12.2203 11.333 11.5039 12.188 11.5039C13.043 11.5039 13.7363 12.2203 13.7363 13.1041C13.7363 13.9876 13.043 14.704 12.188 14.704ZM12.188 10.639C10.8705 10.639 9.80273 11.7427 9.80273 13.1041C9.80273 14.4655 10.8705 15.5689 12.188 15.5689C13.5055 15.5689 14.5733 14.4655 14.5733 13.1041C14.5733 11.7427 13.5055 10.639 12.188 10.639Z" fill="#0066FF"/>
<path fill-rule="evenodd" clip-rule="evenodd" d="M15.2249 10.5417C15.2249 10.8597 14.9753 11.1177 14.6675 11.1177C14.3598 11.1177 14.1101 10.8597 14.1101 10.5417C14.1101 10.2234 14.3598 9.9657 14.6675 9.9657C14.9753 9.9657 15.2249 10.2234 15.2249 10.5417Z" fill="#0066FF"/>
</svg>
