<svg width="24" height="25" viewBox="0 0 24 25" fill="none" xmlns="http://www.w3.org/2000/svg">
<path d="M12 24.7612C18.6274 24.7612 24 19.3886 24 12.7612C24 6.13381 18.6274 0.76123 12 0.76123C5.37258 0.76123 0 6.13381 0 12.7612C0 19.3886 5.37258 24.7612 12 24.7612Z" fill="#E9EEFB"/>
<path fill-rule="evenodd" clip-rule="evenodd" d="M8.1408 16.494H9.91526V10.7942H8.1408V16.494ZM9.02834 10.0166C8.45949 10.0166 8 9.55461 8 8.9889C8 8.42192 8.45949 7.96118 9.02834 7.96118C9.59531 7.96118 10.0561 8.42192 10.0561 8.9889C10.0561 9.55461 9.59531 10.0166 9.02834 10.0166Z" fill="#0066FF"/>
<path fill-rule="evenodd" clip-rule="evenodd" d="M16.5531 16.4943H14.7818V13.7229C14.7818 13.0617 14.7686 12.2118 13.8609 12.2118C12.9388 12.2118 12.798 12.9309 12.798 13.6751V16.4943H11.0273V10.7944H12.727V11.5745H12.7503C12.9866 11.1257 13.5655 10.6523 14.4279 10.6523C16.2219 10.6523 16.5531 11.8334 16.5531 13.3684V16.4943Z" fill="#0066FF"/>
</svg>
