<svg width="102" height="31" viewBox="0 0 102 31" fill="none" xmlns="http://www.w3.org/2000/svg">
<path d="M8.26795 3C9.03775 1.66667 10.9623 1.66667 11.7321 3L16.9282 12C17.698 13.3333 16.7358 15 15.1962 15H4.80385C3.26425 15 2.302 13.3333 3.0718 12L8.26795 3Z" fill="#0066FF"/>
<path d="M19.7321 28C18.9623 29.3333 17.0377 29.3333 16.2679 28L11.0718 19C10.302 17.6667 11.2642 16 12.8038 16L23.1962 16C24.7358 16 25.698 17.6667 24.9282 19L19.7321 28Z" fill="#99C2FF"/>
<path d="M35.12 11.34V14.38H37.2V16.08H35.12V21.08C35.12 21.5333 35.22 21.8667 35.42 22.08C35.6333 22.2933 35.98 22.4 36.46 22.4C36.74 22.4 36.9867 22.3733 37.2 22.32V23.92C36.88 24.04 36.4533 24.1 35.92 24.1C35.0933 24.1 34.44 23.86 33.96 23.38C33.48 22.9 33.24 22.2267 33.24 21.36V16.08H31.4V14.38H31.92C32.4133 14.38 32.78 14.2467 33.02 13.98C33.2733 13.7 33.4 13.34 33.4 12.9V11.34H35.12ZM41.5894 18.34V24H39.7094V9.52H41.5894V15.5C42.2294 14.5667 43.2027 14.1 44.5094 14.1C45.616 14.1 46.4627 14.4533 47.0494 15.16C47.6494 15.8667 47.9494 16.78 47.9494 17.9V24H46.0694V18.22C46.0694 16.6067 45.3227 15.8 43.8294 15.8C43.136 15.8 42.596 16.04 42.2094 16.52C41.8227 16.9867 41.616 17.5933 41.5894 18.34ZM52.1598 18.2H57.4198C57.3932 17.48 57.1532 16.8933 56.6998 16.44C56.2465 15.9733 55.6065 15.74 54.7798 15.74C54.0332 15.74 53.4198 15.9867 52.9398 16.48C52.4598 16.96 52.1998 17.5333 52.1598 18.2ZM57.6998 20.7L59.3198 21.26C59.0398 22.1533 58.5198 22.8867 57.7598 23.46C56.9998 24.02 56.0798 24.3 54.9998 24.3C53.6532 24.3 52.5065 23.84 51.5598 22.92C50.6265 21.9867 50.1598 20.7333 50.1598 19.16C50.1598 17.6933 50.6132 16.48 51.5198 15.52C52.4265 14.56 53.5065 14.08 54.7598 14.08C56.2132 14.08 57.3465 14.54 58.1598 15.46C58.9732 16.3667 59.3798 17.5867 59.3798 19.12C59.3798 19.36 59.3665 19.56 59.3398 19.72H52.0998C52.1132 20.5733 52.3932 21.2733 52.9398 21.82C53.4998 22.3667 54.1865 22.64 54.9998 22.64C56.3732 22.64 57.2732 21.9933 57.6998 20.7Z" fill="#24366B"/>
<path d="M63.6397 27.8H61.7797V14.38H63.5997V15.88C63.8797 15.3733 64.2997 14.96 64.8597 14.64C65.4197 14.32 66.073 14.16 66.8197 14.16C68.2064 14.16 69.2864 14.6333 70.0597 15.58C70.8464 16.5267 71.2397 17.7267 71.2397 19.18C71.2397 20.6467 70.833 21.86 70.0197 22.82C69.2197 23.78 68.133 24.26 66.7597 24.26C66.053 24.26 65.4264 24.1133 64.8797 23.82C64.333 23.5267 63.9197 23.1533 63.6397 22.7V27.8ZM69.3197 19.18C69.3197 18.2067 69.0597 17.4067 68.5397 16.78C68.033 16.14 67.3464 15.82 66.4797 15.82C65.6264 15.82 64.933 16.14 64.3997 16.78C63.8797 17.4067 63.6197 18.2067 63.6197 19.18C63.6197 20.18 63.8797 21 64.3997 21.64C64.933 22.2667 65.6264 22.58 66.4797 22.58C67.333 22.58 68.0197 22.2667 68.5397 21.64C69.0597 21 69.3197 20.18 69.3197 19.18ZM74.8552 18.2H80.1152C80.0885 17.48 79.8485 16.8933 79.3952 16.44C78.9418 15.9733 78.3018 15.74 77.4752 15.74C76.7285 15.74 76.1152 15.9867 75.6352 16.48C75.1552 16.96 74.8952 17.5333 74.8552 18.2ZM80.3952 20.7L82.0152 21.26C81.7352 22.1533 81.2152 22.8867 80.4552 23.46C79.6952 24.02 78.7752 24.3 77.6952 24.3C76.3485 24.3 75.2018 23.84 74.2552 22.92C73.3218 21.9867 72.8552 20.7333 72.8552 19.16C72.8552 17.6933 73.3085 16.48 74.2152 15.52C75.1218 14.56 76.2018 14.08 77.4552 14.08C78.9085 14.08 80.0418 14.54 80.8552 15.46C81.6685 16.3667 82.0752 17.5867 82.0752 19.12C82.0752 19.36 82.0618 19.56 82.0352 19.72H74.7952C74.8085 20.5733 75.0885 21.2733 75.6352 21.82C76.1952 22.3667 76.8818 22.64 77.6952 22.64C79.0685 22.64 79.9685 21.9933 80.3952 20.7ZM85.695 18.2H90.955C90.9283 17.48 90.6883 16.8933 90.235 16.44C89.7817 15.9733 89.1417 15.74 88.315 15.74C87.5683 15.74 86.955 15.9867 86.475 16.48C85.995 16.96 85.735 17.5333 85.695 18.2ZM91.235 20.7L92.855 21.26C92.575 22.1533 92.055 22.8867 91.295 23.46C90.535 24.02 89.615 24.3 88.535 24.3C87.1883 24.3 86.0417 23.84 85.095 22.92C84.1617 21.9867 83.695 20.7333 83.695 19.16C83.695 17.6933 84.1483 16.48 85.055 15.52C85.9617 14.56 87.0417 14.08 88.295 14.08C89.7483 14.08 90.8817 14.54 91.695 15.46C92.5083 16.3667 92.915 17.5867 92.915 19.12C92.915 19.36 92.9017 19.56 92.875 19.72H85.635C85.6483 20.5733 85.9283 21.2733 86.475 21.82C87.035 22.3667 87.7217 22.64 88.535 22.64C89.9083 22.64 90.8083 21.9933 91.235 20.7ZM100.655 14.28V16.28C100.375 16.24 100.102 16.22 99.8348 16.22C98.0748 16.22 97.1948 17.2067 97.1948 19.18V24H95.3148V14.38H97.1548V16.06C97.7415 14.8333 98.7015 14.22 100.035 14.22C100.248 14.22 100.455 14.24 100.655 14.28Z" fill="#24366B"/>
</svg>
