<svg width="24" height="25" viewBox="0 0 24 25" fill="none" xmlns="http://www.w3.org/2000/svg">
<path d="M12 24.7612C18.6274 24.7612 24 19.3886 24 12.7612C24 6.13381 18.6274 0.76123 12 0.76123C5.37258 0.76123 0 6.13381 0 12.7612C0 19.3886 5.37258 24.7612 12 24.7612Z" fill="#E9EEFB"/>
<path fill-rule="evenodd" clip-rule="evenodd" d="M16 10.1779C15.7057 10.3138 15.3895 10.4057 15.0572 10.4471C15.3962 10.2354 15.6565 9.9007 15.779 9.50167C15.462 9.69741 15.1105 9.83953 14.7367 9.91632C14.4375 9.58418 14.0107 9.37646 13.5387 9.37646C12.6322 9.37646 11.8975 10.1417 11.8975 11.0853C11.8975 11.2194 11.9117 11.3498 11.94 11.475C10.5757 11.4034 9.3665 10.7232 8.557 9.68934C8.41575 9.94183 8.33475 10.2354 8.33475 10.5486C8.33475 11.1415 8.6245 11.6645 9.06475 11.9708C8.79575 11.962 8.54275 11.8852 8.3215 11.7571C8.32125 11.7642 8.32125 11.7714 8.32125 11.7785C8.32125 12.6065 8.887 13.2973 9.638 13.4542C9.50025 13.4933 9.35525 13.5141 9.2055 13.5141C9.09975 13.5141 8.997 13.5034 8.89675 13.4837C9.1055 14.1625 9.71175 14.6565 10.43 14.6703C9.86825 15.1287 9.1605 15.4018 8.3915 15.4018C8.259 15.4018 8.1285 15.394 8 15.3778C8.72625 15.8628 9.589 16.1457 10.5157 16.1457C13.535 16.1457 15.1857 13.5417 15.1857 11.2836C15.1857 11.2095 15.1842 11.1358 15.181 11.0624C15.5017 10.8216 15.78 10.5205 16 10.1779Z" fill="#0066FF"/>
</svg>
